<svg width="482" height="745" viewBox="0 0 482 745" fill="none" xmlns="http://www.w3.org/2000/svg">
<path d="M65.1875 456.812V537.75H81.1875V558H38.875V456.812H65.1875ZM136.312 456.812L151.375 558H124.438L123.125 539.812H113.688L112.125 558H84.875L98.25 456.812H136.312ZM122.375 521.875C121.042 510.417 119.708 496.271 118.375 479.438C115.708 498.771 114.042 512.917 113.375 521.875H122.375ZM178.5 456.812H198.188C210.896 456.812 219.479 457.396 223.938 458.562C228.438 459.729 231.854 461.646 234.188 464.312C236.521 466.979 237.979 469.958 238.562 473.25C239.146 476.5 239.438 482.917 239.438 492.5V527.938C239.438 537.021 239 543.104 238.125 546.188C237.292 549.229 235.812 551.625 233.688 553.375C231.562 555.083 228.938 556.292 225.812 557C222.688 557.667 217.979 558 211.688 558H178.5V456.812ZM204.812 474.125V540.688C208.604 540.688 210.938 539.938 211.812 538.438C212.688 536.896 213.125 532.75 213.125 526V486.688C213.125 482.104 212.979 479.167 212.688 477.875C212.396 476.583 211.729 475.646 210.688 475.062C209.646 474.438 207.688 474.125 204.812 474.125ZM309.375 516.062C309.375 526.229 309.125 533.438 308.625 537.688C308.167 541.896 306.667 545.75 304.125 549.25C301.625 552.75 298.229 555.438 293.938 557.312C289.646 559.188 284.646 560.125 278.938 560.125C273.521 560.125 268.646 559.25 264.312 557.5C260.021 555.708 256.562 553.042 253.938 549.5C251.312 545.958 249.75 542.104 249.25 537.938C248.75 533.771 248.5 526.479 248.5 516.062V498.75C248.5 488.583 248.729 481.396 249.188 477.188C249.688 472.938 251.188 469.062 253.688 465.562C256.229 462.062 259.646 459.375 263.938 457.5C268.229 455.625 273.229 454.688 278.938 454.688C284.354 454.688 289.208 455.583 293.5 457.375C297.833 459.125 301.312 461.771 303.938 465.312C306.562 468.854 308.125 472.708 308.625 476.875C309.125 481.042 309.375 488.333 309.375 498.75V516.062ZM283.062 482.812C283.062 478.104 282.792 475.104 282.25 473.812C281.75 472.479 280.688 471.812 279.062 471.812C277.688 471.812 276.625 472.354 275.875 473.438C275.167 474.479 274.812 477.604 274.812 482.812V530.062C274.812 535.938 275.042 539.562 275.5 540.938C276 542.312 277.125 543 278.875 543C280.667 543 281.812 542.208 282.312 540.625C282.812 539.042 283.062 535.271 283.062 529.312V482.812ZM378 456.812V558H354.938L341.25 512V558H319.25V456.812H341.25L356 502.375V456.812H378ZM375 441.75C373.083 445.958 370.729 448.896 367.938 450.562C365.146 452.229 362.688 453.062 360.562 453.062C357.604 453.062 354.417 452.375 351 451L346.375 449.188C343.417 447.979 341.208 447.375 339.75 447.375C336.667 447.375 334.125 449.458 332.125 453.625L322.25 447.062C326.833 438.979 332 434.938 337.75 434.938C340.75 434.938 344.021 435.604 347.562 436.938L351.438 438.375C354.688 439.583 356.896 440.188 358.062 440.188C361.521 440.188 363.812 438.312 364.938 434.562L375 441.75ZM434.062 456.812L449.125 558H422.188L420.875 539.812H411.438L409.875 558H382.625L396 456.812H434.062ZM420.125 521.875C418.792 510.417 417.458 496.271 416.125 479.438C413.458 498.771 411.792 512.917 411.125 521.875H420.125ZM131.693 622.233H91.6006V609.929C91.6006 604.187 91.0879 600.529 90.0625 598.957C89.0371 597.385 87.3281 596.599 84.9355 596.599C82.3379 596.599 80.3555 597.658 78.9883 599.777C77.6895 601.896 77.04 605.109 77.04 609.416C77.04 614.953 77.792 619.123 79.2959 621.926C80.7314 624.729 84.7988 628.112 91.498 632.077C110.707 643.493 122.807 652.858 127.797 660.173C132.787 667.487 135.282 679.279 135.282 695.549C135.282 707.375 133.881 716.091 131.078 721.696C128.344 727.302 123.012 732.019 115.082 735.847C107.152 739.606 97.9238 741.486 87.3965 741.486C75.8438 741.486 65.9658 739.299 57.7627 734.924C49.6279 730.549 44.2959 724.978 41.7666 718.21C39.2373 711.442 37.9727 701.838 37.9727 689.396V678.527H78.0654V698.728C78.0654 704.948 78.6123 708.947 79.7061 710.725C80.8682 712.502 82.8848 713.391 85.7559 713.391C88.627 713.391 90.7461 712.263 92.1133 710.007C93.5488 707.751 94.2666 704.401 94.2666 699.958C94.2666 690.183 92.9336 683.791 90.2676 680.783C87.5332 677.775 80.7998 672.751 70.0674 665.71C59.335 658.601 52.2256 653.439 48.7393 650.227C45.2529 647.014 42.3477 642.57 40.0234 636.896C37.7676 631.223 36.6396 623.977 36.6396 615.158C36.6396 602.443 38.2461 593.146 41.459 587.268C44.7402 581.389 50.0039 576.809 57.25 573.527C64.4961 570.178 73.2461 568.503 83.5 568.503C94.7109 568.503 104.247 570.314 112.108 573.938C120.038 577.561 125.268 582.141 127.797 587.678C130.395 593.146 131.693 602.478 131.693 615.671V622.233ZM223.466 571.989L248.178 738H203.983L201.83 708.161H186.347L183.783 738H139.076L161.02 571.989H223.466ZM200.6 678.732C198.412 659.934 196.225 636.726 194.037 609.108C189.662 640.827 186.928 664.035 185.834 678.732H200.6ZM255.561 571.989H298.627C312.23 571.989 322.519 573.049 329.491 575.168C336.532 577.287 342.206 581.594 346.513 588.088C350.819 594.514 352.973 604.904 352.973 619.26C352.973 628.967 351.435 635.734 348.358 639.562C345.351 643.391 339.369 646.33 330.414 648.381C340.395 650.637 347.162 654.396 350.717 659.66C354.271 664.855 356.049 672.854 356.049 683.654V699.035C356.049 710.246 354.75 718.552 352.152 723.952C349.623 729.353 345.556 733.044 339.95 735.026C334.345 737.009 322.86 738 305.497 738H255.561V571.989ZM298.729 600.393V637.307C300.575 637.238 302.011 637.204 303.036 637.204C307.274 637.204 309.975 636.179 311.137 634.128C312.299 632.009 312.88 626.027 312.88 616.184C312.88 610.988 312.401 607.365 311.444 605.314C310.487 603.195 309.223 601.862 307.65 601.315C306.146 600.769 303.173 600.461 298.729 600.393ZM298.729 663.146V709.597C304.813 709.392 308.676 708.435 310.316 706.726C312.025 705.017 312.88 700.812 312.88 694.113V678.63C312.88 671.521 312.128 667.214 310.624 665.71C309.12 664.206 305.155 663.352 298.729 663.146ZM371.635 571.989H443.617V605.212H414.804V636.691H441.771V668.273H414.804V704.777H446.488V738H371.635V571.989Z" fill="#BF2C38"/>
<ellipse cx="241.157" cy="59.1407" rx="92.8005" ry="59.1407" fill="#012340"/>
<ellipse cx="263" cy="70" rx="71" ry="48" fill="#003F75"/>
<g filter="url(#filter0_d_110_117)">
<rect x="4" y="73.0132" width="473.168" height="355.574" rx="70" fill="#F0D8BB"/>
</g>
<rect x="51" y="73" width="426" height="332" rx="70" fill="#EDE3D6"/>
<mask id="path-6-inside-1_110_117" fill="white">
<path d="M112.84 360.861C112.84 347.054 124.033 335.861 137.84 335.861H344.473C358.281 335.861 369.474 347.054 369.474 360.861V376.748H112.84V360.861Z"/>
</mask>
<path d="M104.84 360.861C104.84 342.636 119.615 327.861 137.84 327.861H344.474C362.699 327.861 377.474 342.636 377.474 360.861H361.474C361.474 351.472 353.862 343.861 344.474 343.861H137.84C128.451 343.861 120.84 351.472 120.84 360.861H104.84ZM369.474 376.748H112.84H369.474ZM104.84 376.748V360.861C104.84 342.636 119.615 327.861 137.84 327.861V343.861C128.451 343.861 120.84 351.472 120.84 360.861V376.748H104.84ZM344.474 327.861C362.699 327.861 377.474 342.636 377.474 360.861V376.748H361.474V360.861C361.474 351.472 353.862 343.861 344.474 343.861V327.861Z" fill="black" mask="url(#path-6-inside-1_110_117)"/>
<mask id="path-8-inside-2_110_117" fill="white">
<path d="M112.84 360.861C112.84 347.054 124.033 335.861 137.84 335.861H344.473C358.281 335.861 369.474 347.054 369.474 360.861V376.748H112.84V360.861Z"/>
</mask>
<path d="M104.84 360.861C104.84 342.636 119.615 327.861 137.84 327.861H344.474C362.699 327.861 377.474 342.636 377.474 360.861H361.474C361.474 351.472 353.862 343.861 344.474 343.861H137.84C128.451 343.861 120.84 351.472 120.84 360.861H104.84ZM369.474 376.748H112.84H369.474ZM104.84 376.748V360.861C104.84 342.636 119.615 327.861 137.84 327.861V343.861C128.451 343.861 120.84 351.472 120.84 360.861V376.748H104.84ZM344.474 327.861C362.699 327.861 377.474 342.636 377.474 360.861V376.748H361.474V360.861C361.474 351.472 353.862 343.861 344.474 343.861V327.861Z" fill="black" mask="url(#path-8-inside-2_110_117)"/>
<mask id="path-10-inside-3_110_117" fill="white">
<path d="M112.84 360.861C112.84 347.054 124.033 335.861 137.84 335.861H344.473C358.281 335.861 369.474 347.054 369.474 360.861V376.748H112.84V360.861Z"/>
</mask>
<path d="M104.84 360.861C104.84 342.636 119.615 327.861 137.84 327.861H344.474C362.699 327.861 377.474 342.636 377.474 360.861H361.474C361.474 351.472 353.862 343.861 344.474 343.861H137.84C128.451 343.861 120.84 351.472 120.84 360.861H104.84ZM369.474 376.748H112.84H369.474ZM104.84 376.748V360.861C104.84 342.636 119.615 327.861 137.84 327.861V343.861C128.451 343.861 120.84 351.472 120.84 360.861V376.748H104.84ZM344.474 327.861C362.699 327.861 377.474 342.636 377.474 360.861V376.748H361.474V360.861C361.474 351.472 353.862 343.861 344.474 343.861V327.861Z" fill="#BF2C38" mask="url(#path-10-inside-3_110_117)"/>
<mask id="path-12-inside-4_110_117" fill="white">
<path d="M366.238 303.265C380.044 303.121 391.523 314.194 391.875 327.997L393.868 405.965L356.066 406.358L353.434 303.397L366.238 303.265Z"/>
</mask>
<path d="M366.033 295.267C384.258 295.078 399.409 309.694 399.875 327.914L401.868 405.882L385.869 406.048L383.876 328.08C383.636 318.694 375.831 311.164 366.442 311.262L366.033 295.267ZM356.066 406.358L353.434 303.397L356.066 406.358ZM353.229 295.4L366.033 295.267C384.258 295.078 399.409 309.694 399.875 327.914L383.876 328.08C383.636 318.694 375.831 311.164 366.442 311.262L353.638 311.395L353.229 295.4ZM393.868 405.965L356.066 406.358L393.868 405.965Z" fill="#F0D8BB" mask="url(#path-12-inside-4_110_117)"/>
<mask id="path-14-inside-5_110_117" fill="white">
<path d="M109.537 302.534C95.7308 302.391 84.2525 313.464 83.8996 327.267L81.9066 405.235L119.709 405.628L122.341 302.667L109.537 302.534Z"/>
</mask>
<path d="M109.742 294.537C91.5172 294.348 76.3658 308.964 75.9001 327.184L73.907 405.152L89.9061 405.318L91.8992 327.35C92.1391 317.964 99.9444 310.434 109.333 310.532L109.742 294.537ZM119.709 405.628L122.341 302.667L119.709 405.628ZM122.546 294.67L109.742 294.537C91.5172 294.348 76.3658 308.964 75.9001 327.184L91.8992 327.35C92.1391 317.964 99.9444 310.434 109.333 310.532L122.137 310.665L122.546 294.67ZM81.9066 405.235L119.709 405.628L81.9066 405.235Z" fill="#F0D8BB" mask="url(#path-14-inside-5_110_117)"/>
<mask id="path-16-inside-6_110_117" fill="white">
<path d="M191.892 298.624C191.892 310.318 201.372 319.798 213.066 319.798H262.373C274.067 319.798 283.547 310.318 283.547 298.624V298.624H191.892V298.624Z"/>
</mask>
<path d="M183.892 298.624C183.892 314.736 196.954 327.798 213.066 327.798H262.373C278.486 327.798 291.547 314.736 291.547 298.624H275.547C275.547 305.9 269.649 311.798 262.373 311.798H213.066C205.79 311.798 199.892 305.9 199.892 298.624H183.892ZM283.547 298.624H191.892H283.547ZM183.892 298.624V298.624C183.892 314.736 196.954 327.798 213.066 327.798V311.798C205.79 311.798 199.892 305.9 199.892 298.624V298.624H183.892ZM262.373 327.798C278.486 327.798 291.547 314.736 291.547 298.624V298.624H275.547V298.624C275.547 305.9 269.649 311.798 262.373 311.798V327.798Z" fill="#F0D8BB" mask="url(#path-16-inside-6_110_117)"/>
<path d="M162 416C162 429.807 173.193 441 187 441H287C300.807 441 312 429.807 312 416V364H162V416Z" fill="#F0D8BB"/>
<path d="M192 265C192 251.193 203.193 240 217 240H238V320H217C203.193 320 192 308.807 192 295V265Z" fill="#F0D8BB"/>
<path d="M192 404C192 417.807 203.193 429 217 429H287C300.807 429 312 417.807 312 404V364H192V404Z" fill="#EDE3D6"/>
<path d="M74 76.0132H240.448V132.977C240.448 169.98 210.451 199.977 173.448 199.977H7V143.013C7 106.01 36.9969 76.0132 74 76.0132Z" fill="#D9D9D9" stroke="black" stroke-width="6"/>
<path d="M4 143.013C4 104.353 35.3401 73.0132 74 73.0132H243.448V132.977C243.448 171.637 212.108 202.977 173.448 202.977H4V143.013Z" fill="#012340"/>
<path d="M31 143C31 104.34 62.3401 73 101 73H243V117C243 155.66 211.66 187 173 187H31V143Z" fill="#003F75"/>
<path d="M477.168 143.013C477.168 104.353 445.828 73.0132 407.168 73.0132H237.72V132.977C237.72 171.637 269.06 202.977 307.72 202.977H477.168V143.013Z" fill="#012340"/>
<path d="M477 143C477 104.34 445.66 73 407 73H269V117C269 155.66 300.34 187 339 187H477V143Z" fill="#003F75"/>
<path d="M319.157 255.198L397.063 255.921" stroke="black" stroke-width="8" stroke-linecap="round"/>
<ellipse cx="358.59" cy="261.022" rx="10.884" ry="6.93626" fill="black"/>
<path d="M85.4368 255.198L163.344 255.921" stroke="black" stroke-width="8" stroke-linecap="round"/>
<ellipse cx="124.87" cy="261.022" rx="10.884" ry="6.93626" fill="black"/>
<g filter="url(#filter1_d_110_117)">
<path d="M36.9964 232.571H205.869V266.323C205.869 277.092 197.139 285.823 186.369 285.823H56.4964C45.7269 285.823 36.9964 277.092 36.9964 266.323V232.571Z" fill="#0487D9" fill-opacity="0.4" stroke="#BF2C38" stroke-width="11"/>
<path d="M268.425 232.571H437.297V266.323C437.297 277.092 428.567 285.823 417.797 285.823H287.925C277.155 285.823 268.425 277.092 268.425 266.323V232.571Z" fill="#0487D9" fill-opacity="0.4" stroke="#BF2C38" stroke-width="11"/>
<line x1="269.799" y1="232.571" x2="204.495" y2="232.571" stroke="#BF2C38" stroke-width="11"/>
<line x1="69.304" y1="232.571" x2="4" y2="232.571" stroke="#BF2C38" stroke-width="11"/>
<line x1="477.168" y1="232.571" x2="411.864" y2="232.571" stroke="#BF2C38" stroke-width="11"/>
</g>
<defs>
<filter id="filter0_d_110_117" x="0" y="73.0132" width="481.168" height="363.574" filterUnits="userSpaceOnUse" color-interpolation-filters="sRGB">
<feFlood flood-opacity="0" result="BackgroundImageFix"/>
<feColorMatrix in="SourceAlpha" type="matrix" values="0 0 0 0 0 0 0 0 0 0 0 0 0 0 0 0 0 0 127 0" result="hardAlpha"/>
<feOffset dy="4"/>
<feGaussianBlur stdDeviation="2"/>
<feComposite in2="hardAlpha" operator="out"/>
<feColorMatrix type="matrix" values="0 0 0 0 0 0 0 0 0 0 0 0 0 0 0 0 0 0 0.25 0"/>
<feBlend mode="normal" in2="BackgroundImageFix" result="effect1_dropShadow_110_117"/>
<feBlend mode="normal" in="SourceGraphic" in2="effect1_dropShadow_110_117" result="shape"/>
</filter>
<filter id="filter1_d_110_117" x="0" y="227.071" width="481.168" height="76.2516" filterUnits="userSpaceOnUse" color-interpolation-filters="sRGB">
<feFlood flood-opacity="0" result="BackgroundImageFix"/>
<feColorMatrix in="SourceAlpha" type="matrix" values="0 0 0 0 0 0 0 0 0 0 0 0 0 0 0 0 0 0 127 0" result="hardAlpha"/>
<feOffset dy="8"/>
<feGaussianBlur stdDeviation="2"/>
<feComposite in2="hardAlpha" operator="out"/>
<feColorMatrix type="matrix" values="0 0 0 0 0 0 0 0 0 0 0 0 0 0 0 0 0 0 0.25 0"/>
<feBlend mode="normal" in2="BackgroundImageFix" result="effect1_dropShadow_110_117"/>
<feBlend mode="normal" in="SourceGraphic" in2="effect1_dropShadow_110_117" result="shape"/>
</filter>
</defs>
</svg>
