<svg width="482" height="441" viewBox="0 0 482 441" fill="none" xmlns="http://www.w3.org/2000/svg">
<ellipse cx="241.157" cy="59.1407" rx="92.8005" ry="59.1407" fill="#012340"/>
<ellipse cx="263" cy="70" rx="71" ry="48" fill="#003F75"/>
<g filter="url(#filter0_d_110_53)">
<rect x="4" y="73.0132" width="473.168" height="355.574" rx="70" fill="#F0D8BB"/>
</g>
<rect x="51" y="73" width="426" height="332" rx="70" fill="#EDE3D6"/>
<mask id="path-5-inside-1_110_53" fill="white">
<path d="M112.84 360.861C112.84 347.054 124.033 335.861 137.84 335.861H344.474C358.281 335.861 369.474 347.054 369.474 360.861V376.748H112.84V360.861Z"/>
</mask>
<path d="M104.84 360.861C104.84 342.636 119.615 327.861 137.84 327.861H344.474C362.699 327.861 377.474 342.636 377.474 360.861H361.474C361.474 351.472 353.862 343.861 344.474 343.861H137.84C128.451 343.861 120.84 351.472 120.84 360.861H104.84ZM369.474 376.748H112.84H369.474ZM104.84 376.748V360.861C104.84 342.636 119.615 327.861 137.84 327.861V343.861C128.451 343.861 120.84 351.472 120.84 360.861V376.748H104.84ZM344.474 327.861C362.699 327.861 377.474 342.636 377.474 360.861V376.748H361.474V360.861C361.474 351.472 353.862 343.861 344.474 343.861V327.861Z" fill="black" mask="url(#path-5-inside-1_110_53)"/>
<mask id="path-7-inside-2_110_53" fill="white">
<path d="M112.84 360.861C112.84 347.054 124.033 335.861 137.84 335.861H344.474C358.281 335.861 369.474 347.054 369.474 360.861V376.748H112.84V360.861Z"/>
</mask>
<path d="M104.84 360.861C104.84 342.636 119.615 327.861 137.84 327.861H344.474C362.699 327.861 377.474 342.636 377.474 360.861H361.474C361.474 351.472 353.862 343.861 344.474 343.861H137.84C128.451 343.861 120.84 351.472 120.84 360.861H104.84ZM369.474 376.748H112.84H369.474ZM104.84 376.748V360.861C104.84 342.636 119.615 327.861 137.84 327.861V343.861C128.451 343.861 120.84 351.472 120.84 360.861V376.748H104.84ZM344.474 327.861C362.699 327.861 377.474 342.636 377.474 360.861V376.748H361.474V360.861C361.474 351.472 353.862 343.861 344.474 343.861V327.861Z" fill="black" mask="url(#path-7-inside-2_110_53)"/>
<mask id="path-9-inside-3_110_53" fill="white">
<path d="M112.84 360.861C112.84 347.054 124.033 335.861 137.84 335.861H344.474C358.281 335.861 369.474 347.054 369.474 360.861V376.748H112.84V360.861Z"/>
</mask>
<path d="M104.84 360.861C104.84 342.636 119.615 327.861 137.84 327.861H344.474C362.699 327.861 377.474 342.636 377.474 360.861H361.474C361.474 351.472 353.862 343.861 344.474 343.861H137.84C128.451 343.861 120.84 351.472 120.84 360.861H104.84ZM369.474 376.748H112.84H369.474ZM104.84 376.748V360.861C104.84 342.636 119.615 327.861 137.84 327.861V343.861C128.451 343.861 120.84 351.472 120.84 360.861V376.748H104.84ZM344.474 327.861C362.699 327.861 377.474 342.636 377.474 360.861V376.748H361.474V360.861C361.474 351.472 353.862 343.861 344.474 343.861V327.861Z" fill="#BF2C38" mask="url(#path-9-inside-3_110_53)"/>
<mask id="path-11-inside-4_110_53" fill="white">
<path d="M366.238 303.265C380.044 303.121 391.523 314.194 391.875 327.997L393.868 405.965L356.066 406.358L353.434 303.397L366.238 303.265Z"/>
</mask>
<path d="M366.033 295.267C384.258 295.078 399.409 309.694 399.875 327.914L401.868 405.882L385.869 406.048L383.876 328.08C383.636 318.694 375.831 311.164 366.442 311.262L366.033 295.267ZM356.066 406.358L353.434 303.397L356.066 406.358ZM353.23 295.4L366.033 295.267C384.258 295.078 399.409 309.694 399.875 327.914L383.876 328.08C383.636 318.694 375.831 311.164 366.442 311.262L353.638 311.395L353.23 295.4ZM393.868 405.965L356.066 406.358L393.868 405.965Z" fill="#F0D8BB" mask="url(#path-11-inside-4_110_53)"/>
<mask id="path-13-inside-5_110_53" fill="white">
<path d="M109.537 302.534C95.7308 302.391 84.2526 313.464 83.8997 327.267L81.9067 405.235L119.709 405.628L122.341 302.667L109.537 302.534Z"/>
</mask>
<path d="M109.742 294.537C91.5172 294.348 76.3659 308.964 75.9002 327.184L73.9071 405.152L89.9062 405.318L91.8993 327.35C92.1392 317.964 99.9445 310.434 109.333 310.532L109.742 294.537ZM119.709 405.628L122.341 302.667L119.709 405.628ZM122.546 294.67L109.742 294.537C91.5172 294.348 76.3659 308.964 75.9002 327.184L91.8993 327.35C92.1392 317.964 99.9445 310.434 109.333 310.532L122.137 310.665L122.546 294.67ZM81.9067 405.235L119.709 405.628L81.9067 405.235Z" fill="#F0D8BB" mask="url(#path-13-inside-5_110_53)"/>
<mask id="path-15-inside-6_110_53" fill="white">
<path d="M191.892 298.624C191.892 310.318 201.372 319.798 213.066 319.798H262.373C274.067 319.798 283.547 310.318 283.547 298.624V298.624H191.892V298.624Z"/>
</mask>
<path d="M183.892 298.624C183.892 314.736 196.954 327.798 213.066 327.798H262.373C278.486 327.798 291.547 314.736 291.547 298.624H275.547C275.547 305.9 269.649 311.798 262.373 311.798H213.066C205.79 311.798 199.892 305.9 199.892 298.624H183.892ZM283.547 298.624H191.892H283.547ZM183.892 298.624V298.624C183.892 314.736 196.954 327.798 213.066 327.798V311.798C205.79 311.798 199.892 305.9 199.892 298.624V298.624H183.892ZM262.373 327.798C278.486 327.798 291.547 314.736 291.547 298.624V298.624H275.547V298.624C275.547 305.9 269.649 311.798 262.373 311.798V327.798Z" fill="#F0D8BB" mask="url(#path-15-inside-6_110_53)"/>
<path d="M162 416C162 429.807 173.193 441 187 441H287C300.807 441 312 429.807 312 416V364H162V416Z" fill="#F0D8BB"/>
<path d="M192 265C192 251.193 203.193 240 217 240H238V320H217C203.193 320 192 308.807 192 295V265Z" fill="#F0D8BB"/>
<path d="M192 404C192 417.807 203.193 429 217 429H287C300.807 429 312 417.807 312 404V364H192V404Z" fill="#EDE3D6"/>
<path d="M74 76.0132H240.448V132.977C240.448 169.98 210.451 199.977 173.448 199.977H7V143.013C7 106.01 36.9969 76.0132 74 76.0132Z" fill="#D9D9D9" stroke="black" stroke-width="6"/>
<path d="M4 143.013C4 104.353 35.3401 73.0132 74 73.0132H243.448V132.977C243.448 171.637 212.108 202.977 173.448 202.977H4V143.013Z" fill="#012340"/>
<path d="M31 143C31 104.34 62.3401 73 101 73H243V117C243 155.66 211.66 187 173 187H31V143Z" fill="#003F75"/>
<path d="M477.168 143.013C477.168 104.353 445.828 73.0132 407.168 73.0132H237.72V132.977C237.72 171.637 269.06 202.977 307.72 202.977H477.168V143.013Z" fill="#012340"/>
<path d="M477 143C477 104.34 445.66 73 407 73H269V117C269 155.66 300.34 187 339 187H477V143Z" fill="#003F75"/>
<path d="M319.157 255.198L397.064 255.921" stroke="black" stroke-width="8" stroke-linecap="round"/>
<ellipse cx="358.59" cy="261.022" rx="10.884" ry="6.93626" fill="black"/>
<path d="M85.4368 255.198L163.344 255.921" stroke="black" stroke-width="8" stroke-linecap="round"/>
<ellipse cx="124.87" cy="261.022" rx="10.884" ry="6.93626" fill="black"/>
<g filter="url(#filter1_d_110_53)">
<path d="M36.9963 232.571H205.869V266.323C205.869 277.092 197.138 285.823 186.369 285.823H56.4963C45.7268 285.823 36.9963 277.092 36.9963 266.323V232.571Z" fill="#0487D9" fill-opacity="0.4" stroke="#BF2C38" stroke-width="11"/>
<path d="M268.425 232.571H437.297V266.323C437.297 277.092 428.567 285.823 417.797 285.823H287.925C277.155 285.823 268.425 277.092 268.425 266.323V232.571Z" fill="#0487D9" fill-opacity="0.4" stroke="#BF2C38" stroke-width="11"/>
<line x1="269.799" y1="232.571" x2="204.495" y2="232.571" stroke="#BF2C38" stroke-width="11"/>
<line x1="69.304" y1="232.571" x2="3.99991" y2="232.571" stroke="#BF2C38" stroke-width="11"/>
<line x1="477.168" y1="232.571" x2="411.864" y2="232.571" stroke="#BF2C38" stroke-width="11"/>
</g>
<defs>
<filter id="filter0_d_110_53" x="0" y="73.0132" width="481.168" height="363.574" filterUnits="userSpaceOnUse" color-interpolation-filters="sRGB">
<feFlood flood-opacity="0" result="BackgroundImageFix"/>
<feColorMatrix in="SourceAlpha" type="matrix" values="0 0 0 0 0 0 0 0 0 0 0 0 0 0 0 0 0 0 127 0" result="hardAlpha"/>
<feOffset dy="4"/>
<feGaussianBlur stdDeviation="2"/>
<feComposite in2="hardAlpha" operator="out"/>
<feColorMatrix type="matrix" values="0 0 0 0 0 0 0 0 0 0 0 0 0 0 0 0 0 0 0.25 0"/>
<feBlend mode="normal" in2="BackgroundImageFix" result="effect1_dropShadow_110_53"/>
<feBlend mode="normal" in="SourceGraphic" in2="effect1_dropShadow_110_53" result="shape"/>
</filter>
<filter id="filter1_d_110_53" x="0" y="227.071" width="481.168" height="76.2517" filterUnits="userSpaceOnUse" color-interpolation-filters="sRGB">
<feFlood flood-opacity="0" result="BackgroundImageFix"/>
<feColorMatrix in="SourceAlpha" type="matrix" values="0 0 0 0 0 0 0 0 0 0 0 0 0 0 0 0 0 0 127 0" result="hardAlpha"/>
<feOffset dy="8"/>
<feGaussianBlur stdDeviation="2"/>
<feComposite in2="hardAlpha" operator="out"/>
<feColorMatrix type="matrix" values="0 0 0 0 0 0 0 0 0 0 0 0 0 0 0 0 0 0 0.25 0"/>
<feBlend mode="normal" in2="BackgroundImageFix" result="effect1_dropShadow_110_53"/>
<feBlend mode="normal" in="SourceGraphic" in2="effect1_dropShadow_110_53" result="shape"/>
</filter>
</defs>
</svg>
